<?xml version="1.0" standalone="no"?>
<!DOCTYPE svg PUBLIC "-//W3C//DTD SVG 20010904//EN"
 "http://www.w3.org/TR/2001/REC-SVG-20010904/DTD/svg10.dtd">
<svg version="1.0" xmlns="http://www.w3.org/2000/svg"
 width="2084.000000pt" height="2084.000000pt" viewBox="0 0 2084.000000 2084.000000"
 preserveAspectRatio="xMidYMid meet">
<metadata>
Created by potrace 1.14, written by Peter Selinger 2001-2017
</metadata>
<g transform="translate(0.000000,2084.000000) scale(0.100000,-0.100000)"
fill="#000000" stroke="none">
<path d="M429 20833 c-1 -5 -2 -602 -2 -1329 l-2 -1320 650 1 c358 0 658 -1
667 -3 15 -4 16 -54 17 -635 0 -348 0 -647 1 -664 l0 -33 665 0 665 0 0 -665
0 -665 -52 0 c-29 -1 -329 -1 -665 -1 l-613 -1 0 -96 c-1 -53 -1 -352 -1 -664
-1 -424 -4 -568 -12 -569 -7 -1 -302 -2 -657 -3 -355 0 -649 -4 -655 -8 -7 -4
-9 -453 -8 -1320 0 -722 1 -1319 2 -1325 1 -10 274 -13 1331 -13 l1330 0 2
1333 3 1332 663 0 c364 0 662 2 663 5 1 3 2 302 3 665 l1 660 665 0 665 0 0
-657 c1 -362 4 -661 8 -665 5 -4 304 -7 665 -8 l657 0 3 -1333 2 -1332 1332 2
1332 3 0 1323 c1 728 -1 1327 -4 1331 -3 4 -302 7 -665 7 l-660 0 -2 539 c-1
297 -3 597 -3 667 l0 127 -622 0 c-343 0 -642 0 -665 0 l-43 1 0 665 0 665
665 0 665 0 0 48 c0 26 0 324 1 663 0 574 1 617 17 621 9 2 307 3 662 2 355 0
647 3 650 7 4 5 5 2611 1 2642 -1 4 -599 7 -1331 7 l-1330 0 -2 -1327 -3
-1328 -655 -1 c-361 0 -660 -3 -665 -6 -6 -4 -10 -253 -10 -667 l1 -661 -666
0 -666 0 0 665 c1 366 -1 665 -4 666 -3 0 -302 2 -665 2 l-660 2 -3 1328 -2
1327 -1330 0 c-732 0 -1330 -3 -1331 -7z"/>
<path d="M13748 20178 l-3 -663 -660 0 -660 0 -5 -665 -5 -665 -663 0 c-655 0
-662 0 -663 -20 -1 -11 -2 -910 -2 -1997 -2 -1750 0 -1977 13 -1980 8 -2 309
-3 668 -3 l653 1 -1 -491 c0 -269 0 -569 0 -666 l0 -175 653 1 c358 0 658 -1
665 -3 9 -3 12 -146 12 -668 l0 -664 2665 0 2665 0 0 63 c1 34 1 333 1 664 0
452 3 602 12 605 7 2 305 3 662 2 358 0 652 3 655 7 4 6 5 1248 1 1309 -1 14
-141 16 -1331 16 l-1330 0 -2 -666 -3 -665 -1330 -1 -1331 0 1 663 c0 365 -2
664 -5 664 -3 1 -302 2 -665 3 l-660 2 -3 1994 c-1 1185 2 1996 7 1999 5 3
304 6 665 5 361 0 656 2 657 5 1 3 2 303 3 666 l1 660 1333 0 1332 0 0 -665 0
-666 1330 0 1330 0 1 20 c4 84 3 1289 -1 1299 -4 10 -143 13 -665 13 l-660 -1
-2 625 c-1 344 -2 642 -3 663 l0 37 -2665 0 -2665 0 -2 -662z"/>
<path d="M1760 9282 c-3 -226 0 -1284 3 -1289 3 -5 1502 -8 3331 -7 l3326 0 0
-150 c0 -269 1 -3607 0 -3728 l0 -118 -665 0 -665 0 -2 1332 -3 1332 -1995 0
-1995 0 0 -1999 0 -1999 3315 0 c1823 -1 3322 0 3330 2 13 3 15 304 13 2645 0
1453 -1 2651 -2 2663 l-1 21 -637 -1 c-351 -1 -650 1 -665 3 l-27 3 0 602 c0
330 -1 629 -1 663 l0 62 -3330 0 -3330 0 0 -37z m3988 -3967 c4 -4 7 -303 7
-666 l1 -659 -666 0 -666 0 0 663 0 662 61 5 c90 7 1255 3 1263 -5z"/>
<path d="M11088 9307 c-2 -7 -3 -2102 -3 -4657 l1 -4645 1332 -3 1332 -2 0
1995 0 1995 2665 0 2665 0 0 28 c4 203 0 1295 -3 1299 -3 3 -1203 5 -2666 5
l-2661 0 2 1332 3 1331 3315 2 c1823 0 3322 2 3330 2 13 1 15 80 13 658 0 362
-1 661 -2 665 -1 4 -2098 7 -4660 7 -3608 0 -4660 -3 -4663 -12z"/>
<path d="M428 7961 c-1 -14 -3 -1513 -2 -3331 l0 -3305 665 0 664 0 0 3330 0
3330 -662 1 -661 0 -4 -25z"/>
<path d="M1763 1317 c-3 -5 -6 -976 -4 -1259 l1 -58 3330 0 3330 0 0 128 c1
221 1 972 0 1087 l0 110 -3326 0 c-1829 0 -3328 -3 -3331 -8z"/>
</g>
</svg>
